<?xml version="1.0" encoding="iso-8859-1"?>
<!-- Generator: Adobe Illustrator 17.1.0, SVG Export Plug-In . SVG Version: 6.00 Build 0)  -->
<!DOCTYPE svg PUBLIC "-//W3C//DTD SVG 1.1//EN" "http://www.w3.org/Graphics/SVG/1.1/DTD/svg11.dtd">
<svg version="1.1" id="Objects" xmlns="http://www.w3.org/2000/svg" xmlns:xlink="http://www.w3.org/1999/xlink" x="0px" y="0px"
	 viewBox="0 0 800 800" style="enable-background:new 0 0 800 800;" xml:space="preserve">
<path style="fill:#B7BD24;" d="M399.999,79.979c29.308-4.74,58.616-9.479,87.923-14.219c-18.585,89.89-157.384,91.129-174.796,0
	C342.084,70.5,371.041,75.239,399.999,79.979z"/>
<path style="fill:#75A635;" d="M90.336,291.855c-28.498,39.972,105.021,102.77,118.618,65.132
	C211.994,348.563,102.761,298.074,90.336,291.855z"/>
<path style="fill:#8BC53F;" d="M151.078,147.647c-31.628,41.552-53.109,92.612-60.742,144.208
	c7.878,24.738,112.486,80.524,121.062,58.455c15.348-39.496,8.528-56.208-3.91-99.986
	C203.101,234.882,179.714,136.333,151.078,147.647z"/>
<path style="fill:#75A635;" d="M709.664,291.855c28.5,39.975-105.035,102.773-118.618,65.132
	C588.006,348.562,697.239,298.075,709.664,291.855z"/>
<path style="fill:#8BC53F;" d="M648.92,147.647c31.629,41.552,53.111,92.612,60.744,144.208
	c-7.878,24.738-112.486,80.523-121.062,58.455c-15.349-39.497-8.531-56.205,3.908-99.986
	C596.897,234.882,620.284,136.333,648.92,147.647z"/>
<path style="fill:#D8DF21;" d="M212.32,285.605c-23.566-37.873-54.393-88.611-61.245-133.277
	c-4.932-32.144,127.729-68.941,152.474-86.567c50.153,85.689,142.75,85.693,192.902,0c47.577,33.89,172.924,42.059,142.574,116.307
	c-22.845,55.889-56.241,101.853-65.372,162.089c-10.892,71.851-17.029,146.029-15.104,218.727
	c0.662,25.001,37.991,142.255,27.816,145.221c-82.107,23.935-173.837,24.73-258.282,18.355
	c-34.405-2.597-68.95-6.968-102.507-15.183c-25.204-6.17-14.17-19.685-8.275-44.191c16.417-68.256,26.339-117.293,22.25-189.327
	C236.496,423.949,242.049,333.388,212.32,285.605C193.477,255.322,231.161,315.887,212.32,285.605z"/>
<path style="fill:#75A635;" d="M482.842,55.256c-32.154,12.112-67.474,21.215-101.996,16.491
	c-24.957-3.415-57.677-26.954-77.3-7.418c58.8,30.016,133.513,29.791,192.904,1.432C491.915,62.259,487.378,58.757,482.842,55.256z"
	/>
<path style="fill:#8BC53F;" d="M482.842,55.256c-28.145,91.863-137.459,87.988-166.404-1.194
	c-45.996,23.764,57.121,88.811,83.8,88.811C426.784,142.873,530.3,78.084,482.842,55.256z"/>
<path style="fill:#8BC53F;" d="M399.999,728.956c63.139,0,129.545-3.41,190.374-22.081c13.54,57.331-394.288,57.331-380.748,0
	C270.455,725.545,336.86,728.956,399.999,728.956z"/>
</svg>
