<?xml version="1.0" encoding="utf-8"?>
<!-- Generator: Adobe Illustrator 16.0.0, SVG Export Plug-In . SVG Version: 6.00 Build 0)  -->
<!DOCTYPE svg PUBLIC "-//W3C//DTD SVG 1.1//EN" "http://www.w3.org/Graphics/SVG/1.1/DTD/svg11.dtd">
<svg version="1.1" id="Layer_1" xmlns="http://www.w3.org/2000/svg" xmlns:xlink="http://www.w3.org/1999/xlink" x="0px" y="0px"
	 width="210.614px" height="680.314px" viewBox="0 0 210.614 680.314" enable-background="new 0 0 210.614 680.314"
	 xml:space="preserve">
<path fill-rule="evenodd" clip-rule="evenodd" fill="#373435" d="M11.452,621.553v58.763H0v-58.763v-4.337v-4.337V215.835v-1.796
	l0.045-0.045c0.231-11.832,2.146-25.302,4.067-36.082c1.173-6.582,2.345-12.151,3.138-15.733l-0.009-0.002l0.343-1.49
	c0.182-0.806,0.333-1.454,0.442-1.922l0.188-0.817c11.177-48.557,37.558-81.322,37.854-81.688l0.002-0.002l0.147-0.183l0.046-0.047
	C68.057,49.4,97.717,31.712,98.772,31.087l-0.001-0.002l0.028-0.017l0.011-0.006l0.009-0.009l0.003-0.001l0.002,0.003L98.916,31
	C152.381,0.833,205.435-0.046,206.036-0.056l0.004,0l4.262-0.078l0.083,4.313l0.057,2.88l0.084,4.326l-4.295,0.079h-0.005
	c-0.572,0.009-50.776,0.842-101.763,29.61l-0.04,0.022c-1.088,0.651-8.023,4.863-17.34,11.969
	c-9.644,7.354-21.666,17.701-31.823,30.056l-0.304,0.38l-0.002,0.003l-0.017,0.017c-0.279,0.347-25.008,31.061-35.583,77
	l-0.026,0.111l-0.027,0.082c-0.511,2.125-7.408,31.184-7.849,53.436v1.684v397.043v4.337l0,0V621.553z"/>
<g>
	<path fill-rule="evenodd" clip-rule="evenodd" fill="#0077BD" d="M209.993,10.211c0,0-51.482,0.725-103.412,29.738
		c0,0-29.369,17.12-50.678,42.992c0,0-25.543,31.274-36.357,77.792c0,0-7.869,32.003-7.978,55.49V605.48l198.425-56.801V10.211z"/>
	<path fill-rule="evenodd" clip-rule="evenodd" fill="#247B51" d="M11.568,477.235c45.692-0.77,152.114-2.506,180.927-2.506
		c4.395,0,10.328,0.058,17.498,0.169v73.781L11.568,605.48V477.235z"/>
	
	<path fill-rule="evenodd" clip-rule="evenodd" fill="#FEFEFE" d="M75.482,310.208c-0.35,0.961,0.087,1.223-1.397,2.009
		s-2.445,1.398-2.881,1.047c-0.437-0.349-0.437-1.484-0.262-2.706s0-3.493,0.175-4.802c0.175-1.31,0.524-3.231,0.786-3.755
		c0.262-0.523,1.31-1.658,1.484-2.095c0.299-0.748,1.311,1.746,1.659,3.055c0.35,1.31,1.048,4.017,1.135,4.803
		C76.268,308.551,75.832,309.249,75.482,310.208L75.482,310.208z M174.325,309.947c-0.698-1.747-3.493-4.104-3.755-4.541
		c-0.262-0.436-0.524-1.397-0.699-2.271c-0.174-0.873-0.698-1.659-2.356-2.707c-1.66-1.048-5.326-2.881-6.287-3.318
		s-2.445-0.786-3.318-0.786s-3.056-0.699-6.374,0.786c-3.317,1.484-7.596,5.064-8.296,6.024c-0.698,0.96-2.27,2.62-2.968,4.279
		s-1.747,4.278-2.096,5.151c-0.35,0.873-0.699,5.152-0.873,5.763c-0.174,0.606-2.445,1.747-2.445,1.747l-3.317-1.222
		c0,0-1.747,0.349-2.795-0.175s-6.985-2.969-8.208-3.318c-1.222-0.351-6.111-2.97-7.159-3.493
		c-1.048-0.524-9.605-2.794-10.653-2.619c-1.047,0.174-4.017,0.349-5.239,0c-1.223-0.35-1.921-0.524-1.921-0.524
		s-5.938-6.637-6.985-7.509c-1.048-0.873-4.017-5.938-5.064-7.509c-1.048-1.572-3.843-5.065-3.843-5.589
		c0-0.523,1.747-2.445,1.747-2.445s3.667-3.492,4.016-4.54c0.349-1.049-0.349-2.096-0.175-3.144
		c0.175-1.047,0.524-3.318,0.874-3.842c0.35-0.523,1.397-1.921,1.397-1.921l-0.349-1.396c0,0,4.366-3.231,4.628-3.318
		c0.262-0.087,0.611-0.786,0.611-0.786l67.496-31.784l0.699,2.795c0,0,0.697,1.222,1.833,2.357c1.135,1.135,3.492,3.58,4.104,4.279
		c0.609,0.698,1.657,2.532,2.706,2.532c1.048,0,1.483-1.571,1.659-2.882c0.175-1.31,0.261-3.23-0.263-4.452
		c-0.523-1.224-4.89-4.28-5.413-4.542c-0.524-0.262-3.492-2.008-4.017-2.095s-2.096-0.087-2.096-0.087l-4.017,2.444L91.723,264.63
		c0,0-0.698,0.174-1.135,0.174c-0.436,0-4.803,2.357-5.414,2.619c-0.611,0.262-1.484-1.571-1.92-1.659
		c-0.437-0.087-1.833-0.087-2.183,0.262c-0.35,0.349-1.048,0.786-1.048,0.786s0-0.437-0.961-0.35
		c-0.96,0.087-1.309,0.612-1.309,0.612s-0.437,0-1.484,0.261c-1.048,0.262-1.31,0.438-1.747,0.873
		c-0.437,0.438-0.698,0.524-1.135,0.524s-1.135-0.261-1.572-0.086s-0.174-0.699-1.31,0.437c-1.135,1.135-0.96,2.008-1.659,2.183
		c-0.699,0.175-2.882,1.834-3.318,2.358c-0.437,0.523-2.532,2.706-2.532,2.706l-0.175,2.533c0,0,0.961,0.437-0.611,1.222
		c-1.571,0.786-2.008,1.222-2.008,1.222s0.524,2.271,0.96,2.882c0.436,0.612,1.397,0.96,1.397,0.96s1.047-1.484,1.833-1.659
		c0.786-0.174,1.222,0.786,1.572,1.484c0.349,0.699,0.437,1.223,0.349,1.747c-0.087,0.524-3.056,5.414-3.667,6.374
		c-0.612,0.96-4.541,6.025-5.676,8.034c-1.135,2.008-4.191,8.819-4.89,10.565s-2.095,9.604-2.445,10.303
		c-0.35,0.7-1.485,4.017-1.223,4.541c0.262,0.524,2.794,3.58,3.667,4.191c0.873,0.611,3.754,1.397,5.152,1.485
		c1.397,0.086,4.977,0.437,5.85,0.698c0.873,0.262-0.524,0.35,0.437,0.873c0.96,0.524,5.064,0.96,6.985,1.31
		c1.921,0.349,3.231,0.349,4.017,0.436s1.223,0.175,2.096,0.699c0.873,0.524,0.96,0.873,1.921,0.873c0.961,0,1.572-0.349,2.445,0
		c0.873,0.349,1.572,0.437,1.572,0.437s0.349,3.667,0,4.279c-0.35,0.611-1.222,1.921-1.659,2.095
		c-0.437,0.175-4.191,6.461-4.278,6.899c-0.087,0.437-0.699,2.356-0.611,2.793s0.175,1.048-0.087,1.746
		c-0.262,0.699-4.104,7.247-5.414,8.732c-1.31,1.484-3.405,5.325-3.755,5.85c-0.349,0.524-1.833,4.279-2.183,4.891
		c-0.349,0.61-2.969,3.841-3.493,4.453c-0.524,0.611-2.882,4.54-3.231,5.151c-0.349,0.611-2.27,4.803-2.444,5.064
		c-0.175,0.262-1.747,2.881-1.833,3.23c-0.087,0.35-0.786,1.135-0.786,1.135s-0.699,0.175-1.659,1.048
		c-0.961,0.873-0.874,2.008-0.437,2.444c0.437,0.438,0.874,0.786,1.397,1.485c0.523,0.698,0.523,1.572,0.786,2.357
		s0,6.199-0.262,7.16c-0.261,0.96,0,6.897,0.175,7.684c0.174,0.785-0.349,3.58-0.175,4.627c0.175,1.049,0.612,2.184,0.35,2.882
		c-0.261,0.699-1.135,2.446-1.047,2.795c0.087,0.349-0.088,6.637,0.087,7.334c0.175,0.698,0,3.319,0,3.93
		c0,0.611-0.262,2.969,0.175,3.755c0.436,0.785,0.349,0.961,0.698,1.921c0.35,0.96,0.437,2.881,0.699,3.579
		c0.262,0.699,0.086,2.184,0.523,2.795c0.437,0.611,0.786,1.223,0.698,1.833c-0.086,0.612,0,2.271,0,3.406s0.175,7.335,0.175,7.335
		s0.698,4.017,0.786,4.278c0.087,0.262-0.437,3.667,0.524,5.501c0.96,1.833,1.92,8.558,2.27,10.652
		c0.35,2.096-0.524,2.882-0.96,3.405c-0.437,0.523-3.93,5.064-4.366,6.199c-0.437,1.135-0.612,8.471-0.699,11.613
		c-0.087,3.144-0.087,9.867,0,10.915s-0.96,1.921-0.611,2.881s0,0.96,0.437,1.834c0.437,0.873,0.261,5.326,0.35,7.51
		c0.087,2.184-0.175,5.151,0.087,5.938c0.262,0.785,0.699,2.53,0.96,3.143c0.262,0.61-1.572,3.579-2.096,4.365
		s-0.873,1.397-0.786,1.659c0.088,0.263-0.437,4.803-0.699,5.588c-0.262,0.786-0.436,1.484-0.087,2.009
		c0.349,0.525,0.96,1.311,1.135,1.571c0.174,0.263-0.437,4.017-0.699,4.803s-0.611,2.706-0.611,3.492s-0.611,1.834-0.524,3.145
		c0.088,1.31,0.35,2.443,1.747,3.667c1.397,1.223,2.969,1.571,4.802,2.183c1.834,0.611,2.27,0.438,3.755,1.922
		c1.484,1.484,5.676,2.967,7.771,3.317c2.095,0.349,8.383,0.437,9.866,0.088c1.484-0.349,4.628-1.397,6.112-2.62
		c1.484-1.223,1.659-1.746,1.397-3.58c-0.262-1.834-0.523-2.882-1.746-3.58s-3.406-1.223-4.89-2.444
		c-1.484-1.223-2.968-2.184-3.755-3.319c-0.785-1.135-0.785-0.087-1.222-2.007c-0.437-1.922-1.223-3.581-0.611-5.239
		c0.611-1.659,0.262-1.311,2.096-3.406c1.833-2.095,2.531-8.557,2.357-10.478c-0.175-1.921-0.349-7.335-0.087-10.216
		c0.261-2.882-0.175-6.986,0.786-9.518c0.96-2.532,2.707-16.591,2.707-17.289s0-0.698,0-0.698s0.262-4.192,1.048-6.113
		c0.786-1.92,1.747-4.976,2.271-8.119s0.524-6.113,1.222-8.121c0.699-2.008,0.96-6.287,0.96-7.858c0-1.572-0.087-6.986-0.262-8.731
		c-0.175-1.747-1.048-3.581-0.874-4.541c0.175-0.96-0.436-3.23-0.262-4.715s1.397-1.834,0.873-3.755s-0.611-4.627-0.349-5.151
		s0.873-1.136,1.135-0.524c0.262,0.612,0.96,0.351,1.484-0.174c0.524-0.524,0.961-0.35,0.961-0.35l0.786,0.961
		c0,0,6.724,7.857,8.121,8.644c1.397,0.785,2.969,3.057,2.969,4.453c0,1.397,2.27,6.111,2.707,6.55
		c0.437,0.437-0.087-0.438,0.96,1.222c1.048,1.659,4.716,10.915,5.326,11.875c0.611,0.961,2.183,3.057,3.231,4.366
		c1.048,1.31,1.746,1.745,2.008,2.357c0.263,0.612,0.175,0.612,0.263,1.833c0.087,1.224,0.262,2.708,1.484,4.278
		c1.222,1.572,1.746,3.755,2.008,4.716s0.175,1.921,1.135,2.882c0.96,0.96,0.873,1.746,1.834,3.057
		c0.961,1.309,2.008,3.58,2.794,5.588s0.786,2.357,0.699,3.58c-0.088,1.222,0.786,4.715,1.135,6.024
		c0.35,1.311,0.698,2.795,0.961,3.668c0.262,0.873,0.698,3.492,1.31,4.627c0.61,1.135,1.484,3.145,1.396,3.93
		c-0.088,0.786-1.396,1.135-0.437,2.532c0.961,1.396,1.659,1.658,2.619,3.667c0.961,2.009,1.049,4.889,1.223,5.501
		c0.175,0.612-0.437,0.961,1.224,1.311c1.658,0.35,7.159,2.183,8.644,2.881c1.483,0.698,7.858,2.882,8.907,3.318
		c1.048,0.437,5.412,1.222,7.334,1.311c1.921,0.086,5.85,0,7.334-0.612c1.485-0.612,3.58-1.921,4.017-2.794
		c0.438-0.873,0.961-1.659,0.263-2.707c-0.699-1.047-2.096-2.009-2.882-2.62c-0.785-0.61-3.755-1.746-4.977-2.531
		c-1.224-0.787-2.882-1.311-4.366-2.097c-1.485-0.785-1.833-0.785-2.62-1.658c-0.785-0.874-0.523-1.746-0.61-2.62
		c-0.088-0.874,0.349-1.135-0.611-1.833s-3.231-1.833-3.493-2.009c-0.262-0.175-0.786-1.31-1.659-2.271
		c-0.872-0.96-1.397-0.96-1.745-2.095c-0.351-1.136-0.874-3.318-0.699-4.54c0.174-1.224,0.611-3.755,1.047-5.677
		c0.438-1.921,1.224-2.27,0.962-4.017c-0.263-1.746-1.223-4.627-1.223-6.024s0-6.462,0.261-8.296
		c0.263-1.833-0.261-4.103-0.261-4.977c0-0.873,1.484-3.23,1.658-4.628c0.175-1.396-0.698-4.365-0.785-5.412
		c-0.087-1.049-1.834-6.289-2.62-7.336c-0.785-1.049-0.96-2.62-0.96-3.579c0-0.962-0.437-0.962-1.135-1.747
		c-0.699-0.786-0.787-1.049-1.136-2.008c-0.35-0.961-1.31-3.406-1.135-4.541c0.174-1.136,0.698-1.484,0-2.008
		c-0.699-0.523-1.31-0.175-1.921-1.223s-1.747-6.025-2.184-6.897c-0.437-0.875-1.135-3.145-1.135-4.018s-1.571-3.144-1.746-4.018
		c-0.175-0.872-1.224-3.491-1.834-4.714c-0.611-1.223-5.326-7.684-6.549-8.819c-1.222-1.135-1.833-2.445-2.184-3.405
		c-0.349-0.96-0.873-2.27-1.222-3.317c-0.35-1.049-0.437-0.786-0.873-2.271s-0.611-5.152-1.223-5.938
		c-0.61-0.786-1.921-0.786-2.183-1.484c-0.263-0.697,0.174-2.444-0.437-3.579c-0.611-1.135-0.786-1.572-1.398-2.009
		c-0.609-0.437-0.872-0.873-0.872-0.873s1.223-1.834,1.834-2.706c0.61-0.874,1.658-1.136,1.483-2.184
		c-0.174-1.049-0.96-0.96-0.349-1.922c0.61-0.96,0.96-1.483,1.658-2.356c0.699-0.873,0.961-1.747,1.572-2.882
		s11.526-7.771,16.416-10.74c4.889-2.969,5.851-4.715,8.993-8.295c3.144-3.58,7.597-6.985,8.208-8.645s0.787-5.589,1.135-6.199
		c0.35-0.611,1.396-0.611,1.747-1.396c0.349-0.786,0.611-3.581,0.523-4.366c-0.087-0.785-0.96-5.065-1.745-6.288
		c-0.786-1.222-1.573-1.57-1.485-1.833c0.087-0.262,1.136-1.571,1.136-1.571l2.008,0.524c0,0,0.698,0.087,1.571-1.048
		c0.874-1.136,1.396-3.144,1.922-4.017c0.523-0.873,0.523-0.873,1.658-1.311c1.135-0.437,3.231-2.445,4.104-4.279
		c0.872-1.833,2.095-3.928,2.532-5.414c0.436-1.484,0.611-4.366,1.134-4.802c0.525-0.437,1.136-0.437,2.097-1.047
		c0.96-0.611,1.745,0.611,2.357-1.659C177.294,316.583,175.023,311.693,174.325,309.947z"/>

    <text font-family="Impact" font-size="66.744" font-weight="normal" style="stroke: #33CC66; stroke-width: 1.4173; stroke-dasharray: ; stroke-linecap: butt; stroke-linejoin: miter; stroke-miterlimit: 5; fill: #00FF00; opacity: 1;" transform="translate(50 150)">LASC</text>
    <text font-family="Impact" font-size="66.744" font-weight="normal" style="stroke: #33CC66; stroke-width: 1.4173; stroke-dasharray: ; stroke-linecap: butt; stroke-linejoin: miter; stroke-miterlimit: 5; fill: #00FF00; opacity: 1;" transform="translate(50 220)">CLUB</text>    
</g>
<g transform="translate(390.31 134.41) rotate(-1) scale(0.5 0.5)">
</g>
</svg>
