<?xml version="1.0" encoding="UTF-8"?>
<!DOCTYPE svg PUBLIC "-//W3C//DTD SVG 1.1//EN" "http://www.w3.org/Graphics/SVG/1.1/DTD/svg11.dtd">
<!-- Creator: CorelDRAW X7 -->
<svg xmlns="http://www.w3.org/2000/svg" xml:space="preserve" width="4.5mm" height="4.5mm" version="1.1" style="shape-rendering:geometricPrecision; text-rendering:geometricPrecision; image-rendering:optimizeQuality; fill-rule:evenodd; clip-rule:evenodd"
viewBox="0 0 450 450"
 xmlns:xlink="http://www.w3.org/1999/xlink">
 <defs>
  <style type="text/css">
   <![CDATA[
    .str0 {stroke:white;stroke-width:20}
    .fil2 {fill:none}
    .fil0 {fill:#1BA1E2}
    .fil1 {fill:white}
   ]]>
  </style>
 </defs>
 <g id="Layer_x0020_1">
  <metadata id="CorelCorpID_0Corel-Layer"/>
  <path class="fil0" d="M450 225l0 225 -224 0c0,0 0,0 0,0 -125,0 -226,-101 -226,-225 0,-126 101,-225 226,-225 123,0 224,99 224,225 0,0 0,0 0,0z"/>
  <path class="fil1" d="M184 366l0 -101c-10,0 -8,1 -14,-4 -3,-2 -6,-6 -6,-11l0 -81c0,-8 11,-15 20,-15l40 0 2 0 40 0c9,0 20,7 20,15l0 81c0,5 -3,9 -6,11 -6,5 -4,4 -14,4l0 101c-17,0 -27,0 -40,0l0 0 -1 0 0 0 -1 0 0 0c-13,0 -23,0 -40,0zm41 -221c15,0 31,-11 31,-34 0,-19 -16,-28 -31,-27l0 0c-15,-1 -31,8 -31,27 0,23 16,34 31,34l0 0zm112 -34c0,45 -61,45 -61,0 0,-37 61,-37 61,0zm30 58l0 81c0,5 -3,9 -6,11 -7,5 -4,4 -14,4l0 101 -61 0 0 -80c12,-3 21,-9 21,-23l0 -91c0,-9 -2,-10 -3,-18 22,0 63,-5 63,15zm-254 -58c0,45 61,45 61,0 0,-37 -61,-37 -61,0zm-30 58l0 81c0,5 3,9 6,11 7,5 4,4 14,4l0 101 61 0 0 -80c-12,-3 -21,-9 -21,-23l0 -91c0,-9 2,-10 3,-18 -22,0 -63,-5 -63,15z"/>
  <path class="fil2 str0" d="M329 257c40,0 71,32 71,72 0,39 -31,71 -71,71 -39,0 -71,-32 -71,-71 0,-40 32,-72 71,-72z"/>
  <path class="fil0" d="M329 257c40,0 71,32 71,72 0,39 -31,71 -71,71 -39,0 -71,-32 -71,-71 0,-40 32,-72 71,-72zm40 58l-24 0 0 -24c0,-7 -6,-14 -14,-14 -7,0 -13,7 -13,14l0 24 -25 0c-7,0 -13,7 -13,14 0,7 6,13 13,13l25 0 0 25c0,7 6,13 13,13 8,0 14,-6 14,-13l0 -25 24 0c8,0 14,-6 14,-13 0,-7 -6,-14 -14,-14z"/>
  <path class="fil1" d="M369 315l-24 0 0 -24c0,-7 -6,-14 -14,-14 -7,0 -13,7 -13,14l0 24 -25 0c-7,0 -13,7 -13,14 0,7 6,13 13,13l25 0 0 25c0,7 6,13 13,13 8,0 14,-6 14,-13l0 -25 24 0c8,0 14,-6 14,-13 0,-7 -6,-14 -14,-14z"/>
 </g>
</svg>
