<?xml version="1.0" encoding="UTF-8"?>
<!DOCTYPE svg PUBLIC "-//W3C//DTD SVG 1.1//EN" "http://www.w3.org/Graphics/SVG/1.1/DTD/svg11.dtd">
<!-- Creator: CorelDRAW X6 -->
<svg xmlns="http://www.w3.org/2000/svg" xml:space="preserve" width="4.5mm" height="4.5mm" version="1.1" style="shape-rendering:geometricPrecision; text-rendering:geometricPrecision; image-rendering:optimizeQuality; fill-rule:evenodd; clip-rule:evenodd"
viewBox="0 0 450 450"
 xmlns:xlink="http://www.w3.org/1999/xlink">
 <defs>
  <style type="text/css">
   <![CDATA[
    .fil1 {fill:#FEFEFE}
    .fil0 {fill:#1BA1E2}
   ]]>
  </style>
 </defs>
 <g id="Layer_x0020_1">
  <metadata id="CorelCorpID_0Corel-Layer"/>
  <g id="_363145872">
   <path class="fil0" d="M450 225l0 225 -224 0c0,0 0,0 0,0 -125,0 -226,-101 -226,-225 0,-126 101,-225 226,-225 124,0 224,99 224,225 0,0 0,0 0,0z"/>
   <g>
    <path class="fil1" d="M115 97l92 0 0 247c-16,0 -44,9 -63,9 -20,0 -23,-20 -23,-30 0,-10 -4,-13 -10,-16 -6,-4 -6,-6 -6,-9 0,-3 4,-7 6,-8 2,-2 -1,-3 -1,-3 -6,-4 -14,-7 -7,-17 6,-11 6,-15 6,-15 -17,-1 -32,-9 -11,-36 21,-27 19,-39 19,-39 -6,-3 -6,-6 -6,-6 2,2 5,2 5,2 0,-16 -11,-25 -11,-25 0,0 1,-20 2,-29 1,-7 7,-20 9,-24z"/>
    <path class="fil1" d="M335 97l-92 0 0 247c16,0 44,9 63,9 20,0 23,-20 23,-30 0,-10 4,-13 10,-16 6,-4 6,-6 6,-9 0,-3 -4,-7 -6,-8 -2,-2 1,-3 1,-3 6,-4 14,-7 7,-17 -6,-11 -6,-15 -6,-15 17,-1 32,-9 11,-36 -21,-27 -19,-39 -19,-39 6,-3 6,-6 6,-6 -2,2 -5,2 -5,2 0,-16 11,-25 11,-25 0,0 -1,-20 -2,-29 -1,-7 -7,-20 -9,-24z"/>
   </g>
  </g>
 </g>
</svg>
