<svg xmlns="http://www.w3.org/2000/svg" width="70px" height="60px" viewBox="0 0 70 60">
	<g id="5" transform="matrix(1, 0, 0, 1, 0, 0)">
		<path style="fill:#676867;fill-opacity:1" d="M46.5,18.8Q46.9 19.2 46.9 19.7Q46.9 20.25 46.5 20.6Q46.15 21 45.6 21L37.9 21L37.9 24.85L32.8 19.7L37.9 14.6L37.9 18.4L45.6 18.4Q46.15 18.4 46.5 18.8M37.55,11.65Q37.2 12 36.65 12L28.95 12L28.95 27.4L36.65 27.4Q37.2 27.4 37.55 27.75Q37.9 28.15 37.9 28.65L37.55 29.6Q37.2 29.95 36.65 29.95L27.65 29.95Q27.1 29.95 26.75 29.6Q26.4 29.2 26.4 28.65L26.4 10.75Q26.4 10.2 26.75 9.8Q27.1 9.45 27.65 9.45L36.65 9.45Q37.2 9.45 37.55 9.8Q37.9 10.2 37.9 10.75Q37.9 11.3 37.55 11.65" />
	</g>
</svg>
