<?xml version="1.0" encoding="UTF-8"?>
<!DOCTYPE svg PUBLIC "-//W3C//DTD SVG 1.1//EN" "http://www.w3.org/Graphics/SVG/1.1/DTD/svg11.dtd">
<!-- Creator: CorelDRAW X6 -->
<svg xmlns="http://www.w3.org/2000/svg" xml:space="preserve" width="4.5mm" height="4.5mm" version="1.1" style="shape-rendering:geometricPrecision; text-rendering:geometricPrecision; image-rendering:optimizeQuality; fill-rule:evenodd; clip-rule:evenodd"
viewBox="0 0 450 450"
 xmlns:xlink="http://www.w3.org/1999/xlink">
 <defs>
  <style type="text/css">
   <![CDATA[
    .fil1 {fill:#FEFEFE}
    .fil0 {fill:#1BA1E1}
   ]]>
  </style>
 </defs>
 <g id="Layer_x0020_1">
  <metadata id="CorelCorpID_0Corel-Layer"/>
  <g id="_363258400">
   <path class="fil0" d="M450 225l0 225 -224 0c0,0 0,0 0,0 -125,0 -226,-101 -226,-225 0,-126 101,-225 226,-225 124,0 224,99 224,225 0,0 0,0 0,0z"/>
   <path class="fil1" d="M243 97c-60,0 -110,49 -110,110 0,21 6,41 18,58l-47 46c-8,8 -8,20 0,28l8 8c8,8 19,8 27,0l47 -47c17,11 36,17 57,17 60,0 108,-49 108,-109 0,-61 -48,-110 -108,-110z"/>
   <path class="fil0" d="M243 286c-43,0 -79,-35 -79,-78 0,-44 36,-80 79,-80 43,0 79,35 79,80 0,43 -36,78 -79,78z"/>
   <path class="fil1" d="M284 194l-27 0 -28 0 -27 0c-8,0 -13,6 -13,14 0,8 5,14 13,14l27 0 28 0 27 0c8,0 13,-6 13,-14 0,-8 -5,-14 -13,-14z"/>
  </g>
 </g>
</svg>
