<svg xmlns="http://www.w3.org/2000/svg" width="16" height="16" viewBox="0 0 16 16">
	<g id="3" transform="matrix(1, 0, 0, 1, -6.1, -44)">
		<path style="fill:white;fill-opacity:1" d="M22.1,46L22.1 47L20.1 47Q20.1 46 19.1 46L19.1 44L20.1 44Q20.95 44 21.5 44.55Q22.1 45.15 22.1 46M17.1,46L15.1 46L15.1 44L17.1 44L17.1 46M20.1,53L22.1 53L22.1 55L20.1 55L20.1 53M20.1,51L20.1 49L22.1 49L22.1 51L20.1 51M13.1,46L11.1 46L11.1 44L13.1 44L13.1 46M9.1,46Q8.1 46 8.1 47L6.1 47L6.1 46Q6.1 45.15 6.65 44.55Q7.25 44 8.1 44L9.1 44L9.1 46M8.1,49L8.1 51L6.1 51L6.1 49L8.1 49M8.1,53L8.1 55L6.1 55L6.1 53L8.1 53M13.1,60L11.1 60L11.1 58L13.1 58L13.1 60M15.1,58L17.1 58L17.1 60L15.1 60L15.1 58M8.1,57Q8.1 58 9.1 58L9.1 60L8.1 60Q7.25 60 6.65 59.4Q6.1 58.85 6.1 58L6.1 57L8.1 57M21.5,59.4Q20.95 60 20.1 60L19.1 60L19.1 58L19.8 57.7L20.1 57L22.1 57L22.1 58Q22.1 58.85 21.5 59.4" />
	</g>
</svg>
