<svg xmlns="http://www.w3.org/2000/svg" width="15" height="15" viewBox="0 0 15 15">
	<g id="2" transform="matrix(1, 0, 0, 1, -5.7, -44.05)">
		<path style="fill:white;fill-opacity:1" d="M20.15,44.6Q20.7 45.15 20.7 45.9L20.7 57.15Q20.7 57.95 20.15 58.5Q19.6 59.05 18.8 59.05L7.55 59.05Q6.8 59.05 6.25 58.5Q5.7 57.95 5.7 57.15L5.7 45.9Q5.7 45.15 6.25 44.6Q6.8 44.05 7.55 44.05L18.8 44.05Q19.6 44.05 20.15 44.6M18.8,46.85L18.55 46.2Q18.25 45.9 17.9 45.9L8.5 45.9Q8.15 45.9 7.85 46.2Q7.55 46.5 7.55 46.85L7.55 56.25L7.85 56.9L8.5 57.15L17.9 57.15L18.55 56.9L18.8 56.25L18.8 46.85M11.85,50.2Q11.4 50.6 10.85 50.6Q10.25 50.6 9.85 50.2Q9.45 49.75 9.45 49.2Q9.45 48.6 9.85 48.2Q10.25 47.8 10.85 47.8L11.85 48.2Q12.25 48.6 12.25 49.2Q12.25 49.75 11.85 50.2M12.25,54.35L15.05 49.65L16.95 55.3L9.45 55.3L11.3 52.5L12.25 54.35" />
	</g>
</svg>
