<?xml version="1.0" encoding="UTF-8"?>
<!DOCTYPE svg PUBLIC "-//W3C//DTD SVG 1.1//EN" "http://www.w3.org/Graphics/SVG/1.1/DTD/svg11.dtd">
<!-- Creator: CorelDRAW X6 -->
<svg xmlns="http://www.w3.org/2000/svg" xml:space="preserve" width="4.5mm" height="4.5mm" version="1.1" style="shape-rendering:geometricPrecision; text-rendering:geometricPrecision; image-rendering:optimizeQuality; fill-rule:evenodd; clip-rule:evenodd"
viewBox="0 0 450 450"
 xmlns:xlink="http://www.w3.org/1999/xlink">
 <defs>
  <style type="text/css">
   <![CDATA[
    .fil0 {fill:#1BA1E1}
   ]]>
  </style>
 </defs>
 <g id="Layer_x0020_1">
  <metadata id="CorelCorpID_0Corel-Layer"/>
  <path class="fil0" d="M450 225l0 225 -224 0c-125,0 -226,-101 -226,-225 0,-124 101,-225 226,-225 124,0 224,101 224,225zm-16 209l0 -209c0,-58 -23,-110 -61,-148 -38,-38 -90,-61 -147,-61 -58,0 -110,23 -148,61 -38,38 -61,90 -61,148 0,58 23,110 61,148 38,38 90,61 148,61l208 0z"/>
 </g>
</svg>
