<?xml version="1.0" encoding="utf-8"?>
<svg version="1.1" id="Layer_1"
xmlns="http://www.w3.org/2000/svg"
xmlns:xlink="http://www.w3.org/1999/xlink"
xmlns:author="http://www.sothink.com"
width="11px" height="13px"
xml:space="preserve">
<g id="343" transform="matrix(1, 0, 0, 1, -11.4, -7.4)">
<path style="fill:#4D4D4D;fill-opacity:1" d="M13.9,9.45L13.9 12.25L17.25 12.2Q17.85 12.15 18.25 11.75Q18.65 11.45 18.65 10.8L18.3 9.9Q18 9.55 17.4 9.45L13.9 9.45M20.55,12.05Q20.1 12.75 19.3 13.1Q20.35 13.4 21 14.2Q21.6 15.05 21.6 16.05Q21.6 16.95 21.25 17.65L20.15 18.9Q19.65 19.35 18.55 19.5L11.4 19.55L11.4 7.4L18.45 7.55Q19.2 7.65 19.7 8.05L20.65 9.05Q21 9.6 21 10.45Q21 11.3 20.55 12.05M18.75,16.95L19.05 15.95L18.8 15Q18.6 14.65 18.05 14.45L15.85 14.25L13.9 14.25L13.9 17.5L17.85 17.45Q18.3 17.4 18.75 16.95" />
</g>
</svg>
