<?xml version="1.0" encoding="UTF-8"?>
<!DOCTYPE svg PUBLIC "-//W3C//DTD SVG 1.1//EN" "http://www.w3.org/Graphics/SVG/1.1/DTD/svg11.dtd">
<!-- Creator: CorelDRAW X6 -->
<svg xmlns="http://www.w3.org/2000/svg" xml:space="preserve" width="4.5mm" height="4.5mm" version="1.1" style="shape-rendering:geometricPrecision; text-rendering:geometricPrecision; image-rendering:optimizeQuality; fill-rule:evenodd; clip-rule:evenodd"
viewBox="0 0 450 450"
 xmlns:xlink="http://www.w3.org/1999/xlink">
 <defs>
  <style type="text/css">
   <![CDATA[
    .str0 {stroke:#00AFEF;stroke-width:7.62}
    .str1 {stroke:#1BA1E2;stroke-width:7.62}
    .fil2 {fill:#00AFEF}
    .fil0 {fill:#1BA1E2}
    .fil1 {fill:#FEFEFE;fill-rule:nonzero}
   ]]>
  </style>
 </defs>
 <g id="Layer_x0020_1">
  <metadata id="CorelCorpID_0Corel-Layer"/>
  <g id="_363252472">
   <path class="fil0" d="M450 225l0 225 -224 0c0,0 0,0 0,0 -125,0 -226,-101 -226,-225 0,-126 101,-225 226,-225 124,0 224,99 224,225 0,0 0,0 0,0z"/>
   <path class="fil1 str0" d="M224 314c-38,0 -76,0 -115,0 0,-70 0,-139 0,-209 51,0 102,0 153,0 0,52 0,105 0,157m0 0c-13,17 -25,35 -38,52 4,-13 4,-26 0,-52 19,5 29,5 38,0z"/>
   <rect class="fil2 str1" x="128" y="125" width="114.685" height="9.5062"/>
   <rect class="fil2 str1" x="128" y="174" width="114.685" height="9.50619"/>
   <rect class="fil2 str1" x="129" y="224" width="114.685" height="9.50619"/>
   <path class="fil1 str0" d="M291 360c-38,0 -77,0 -115,0 0,-70 0,-139 0,-209 51,0 102,0 153,0 0,52 0,105 0,157m0 0c-13,17 -26,35 -38,52 4,-13 4,-26 0,-52 19,5 29,5 38,0z"/>
   <rect class="fil2 str1" x="195" y="171" width="114.685" height="9.50619"/>
   <rect class="fil2 str1" x="195" y="220" width="114.685" height="9.50619"/>
   <rect class="fil2 str1" x="195" y="270" width="114.685" height="9.50619"/>
   <path class="fil1 str0" d="M356 406c-38,0 -76,0 -115,0 0,-70 0,-139 0,-209 51,0 102,0 153,0 0,52 0,105 0,157m0 0c-13,17 -26,35 -38,52 4,-13 4,-26 0,-52 19,5 29,5 38,0z"/>
   <rect class="fil2 str1" x="260" y="217" width="114.685" height="9.50619"/>
   <rect class="fil2 str1" x="260" y="267" width="114.685" height="9.50619"/>
   <rect class="fil2 str1" x="261" y="316" width="114.685" height="9.50619"/>
  </g>
 </g>
</svg>
