<?xml version="1.0" encoding="UTF-8"?>
<!DOCTYPE svg PUBLIC "-//W3C//DTD SVG 1.1//EN" "http://www.w3.org/Graphics/SVG/1.1/DTD/svg11.dtd">
<!-- Creator: CorelDRAW X6 -->
<svg xmlns="http://www.w3.org/2000/svg" xml:space="preserve" width="4.5mm" height="4.5mm" version="1.1" style="shape-rendering:geometricPrecision; text-rendering:geometricPrecision; image-rendering:optimizeQuality; fill-rule:evenodd; clip-rule:evenodd"
viewBox="0 0 450 450"
 xmlns:xlink="http://www.w3.org/1999/xlink">
 <defs>
  <style type="text/css">
   <![CDATA[
    .fil1 {fill:#FEFEFE}
    .fil0 {fill:#1BA1E2}
   ]]>
  </style>
 </defs>
 <g id="Layer_x0020_1">
  <metadata id="CorelCorpID_0Corel-Layer"/>
  <g id="_211924920">
   <path class="fil0" d="M450 225l0 225 -224 0c0,0 0,0 -1,0 -124,0 -224,-101 -224,-225 0,-124 101,-225 224,-225 125,0 226,101 226,225 0,0 0,0 0,0z"/>
   <g>
    <path class="fil1" d="M322 274c0,-5 -1,-11 -6,-17 4,-5 6,-11 6,-17 0,-3 -1,-9 -6,-15 4,-6 6,-11 6,-17 0,-5 -1,-9 -6,-17 4,-5 6,-9 6,-15 0,-5 -1,-11 -6,-17 4,-5 6,-11 6,-17 0,-26 -41,-44 -97,-44 -56,0 -97,18 -97,44 0,6 3,12 6,17 -5,6 -6,12 -6,17 0,6 3,11 6,15 -5,8 -6,12 -6,17 0,6 3,11 6,17 -5,6 -6,12 -6,15 0,6 3,12 6,17 -5,6 -6,12 -6,17 0,6 3,11 6,15 -5,8 -6,12 -6,17 0,26 41,46 97,46 56,0 97,-20 97,-46 0,-5 -1,-9 -6,-17 4,-5 6,-9 6,-15z"/>
    <path class="fil0" d="M298 150l-1 2c-1,2 -4,3 -5,3l-1 0c0,2 -1,2 -1,2 -1,2 -1,2 -3,2l0 0c-4,2 -9,3 -13,5l-1 0c0,0 -1,0 -1,2 -1,0 -3,0 -3,0l-1 0c-13,3 -28,5 -42,5 -15,0 -29,-2 -42,-5l-1 0c-1,0 -1,0 -3,0 0,-2 -1,-2 -3,-2l0 0c-4,-2 -9,-3 -13,-5l0 0c-1,0 -1,0 -3,-2 0,0 -1,0 -3,-2l0 0c-1,0 -4,-2 -5,-3l-1 -2c-3,-2 -5,-5 -5,-8 0,-9 32,-24 78,-24 46,0 76,15 76,24 0,3 -1,6 -4,8z"/>
    <path class="fil0" d="M298 184l-1 0c-1,2 -4,3 -5,5l-1 0c0,0 -1,0 -1,2 -1,0 -1,0 -3,0l0 0c-5,3 -10,5 -15,6 -1,0 -1,0 -3,0l0 0c-1,0 -1,0 -1,2 -1,0 -3,0 -5,0l0 0c-11,3 -24,5 -37,5 -13,0 -26,-2 -37,-5l0 0c-3,0 -4,0 -5,0 0,-2 -1,-2 -1,-2l0 0c-1,0 -1,0 -3,0 -5,-2 -10,-3 -15,-6l0 0c-1,0 -1,0 -3,0 0,-2 -1,-2 -3,-2l0 0c-1,-2 -4,-3 -5,-5l-1 0c-3,-3 -5,-6 -5,-8 0,-2 1,-3 1,-5 18,11 46,17 76,17 31,0 57,-6 75,-17 1,2 1,3 1,5 0,2 -1,5 -4,8z"/>
    <path class="fil0" d="M298 216l-1 2c-3,2 -5,3 -9,5 0,0 0,0 -1,0 0,2 0,2 -1,2 -1,0 -1,0 -3,2l0 0c-1,0 -1,0 -1,0 -1,0 -1,0 -3,2 0,0 0,0 -1,0 0,0 -1,0 -3,0 -1,2 -1,2 -3,2l-1 0c-14,5 -29,6 -46,6 -17,0 -32,-2 -46,-6l-1 0c-1,0 -1,0 -3,-2 -1,0 -3,0 -3,0 -1,0 -1,0 -1,0 -1,-2 -3,-2 -3,-2 0,0 0,0 -1,0l0 0c-1,-2 -1,-2 -3,-2 -1,0 -1,0 -3,-2 0,0 0,0 0,0 -4,-2 -6,-3 -9,-5l-1 -2c-3,-3 -5,-5 -5,-8 0,-2 1,-2 1,-3 18,11 46,15 76,15 31,0 57,-5 75,-15 1,2 1,2 1,3 0,3 -1,5 -4,8z"/>
    <path class="fil0" d="M298 248l-1 2c-3,2 -5,3 -9,5 0,0 0,2 -1,2 0,0 0,0 -1,0 -1,2 -1,2 -3,2l-1 0c-1,0 -1,2 -3,2 0,0 0,0 -1,0l0 0c0,0 -1,2 -3,2 -1,0 -1,0 -3,0l-1 0c-14,5 -29,6 -46,6 -17,0 -32,-2 -46,-6l-1 0c-1,0 -1,0 -3,0 -1,0 -3,-2 -3,-2 -1,0 -1,0 -1,0 -1,0 -3,-2 -3,-2 0,0 0,0 -1,0l0 0c-1,0 -1,0 -3,-2 -1,0 -1,0 -3,0 0,0 0,-2 0,-2 -4,-2 -6,-3 -9,-5l-1 -2c-3,-2 -5,-5 -5,-8 0,0 1,-2 1,-3 18,11 46,17 76,17 31,0 57,-6 75,-17 1,2 1,3 1,3 0,3 -1,6 -4,8z"/>
    <path class="fil0" d="M298 282l-1 0c-3,3 -5,5 -9,6 0,0 0,0 0,0 -1,0 -1,0 -3,2 -1,0 -1,0 -3,0l-1 2c-1,0 -1,0 -3,0 0,0 0,0 -1,0l0 0c0,2 -1,2 -3,2 -1,0 -1,0 -3,2 0,0 -1,0 -1,0 -14,3 -29,6 -46,6 -17,0 -32,-3 -46,-6l-1 0c-1,-2 -1,-2 -3,-2 -1,0 -3,0 -3,-2 -1,0 -1,0 -1,0 -1,0 -3,0 -3,0l-1 -2c-1,0 -1,0 -3,0 -1,-2 -1,-2 -3,-2 0,0 0,0 0,0 -4,-2 -6,-3 -9,-6l-1 0c-3,-3 -5,-6 -5,-8 0,-2 1,-3 1,-5 18,11 46,17 76,17 31,0 57,-6 75,-17 1,2 1,3 1,5 0,2 -1,5 -4,8z"/>
    <path class="fil0" d="M225 332c-46,0 -78,-15 -78,-26 0,-2 1,-3 1,-3 18,11 46,15 76,15 31,0 57,-5 75,-15 1,0 1,2 1,3 0,11 -31,26 -76,26z"/>
   </g>
  </g>
 </g>
</svg>
