<?xml version="1.0" encoding="utf-8"?>
<svg version="1.1" id="Layer_1"
xmlns="http://www.w3.org/2000/svg"
xmlns:xlink="http://www.w3.org/1999/xlink"
xmlns:author="http://www.sothink.com"
width="11px" height="12px"
xml:space="preserve">
<g id="350" transform="matrix(1, 0, 0, 1, -11.45, -7.95)">
<path style="fill:none;stroke-width:1.5;stroke-linecap:round;stroke-linejoin:round;stroke-miterlimit:3;stroke:#26A3DB;stroke-opacity:1" d="M12.2,18.85L20.8 18.85" />
<path style="fill:#26A3DB;fill-opacity:1" d="M19.4,8.45L19.25 14.35L18.8 15.3L17.9 15.9L16.45 16.1L14.8 15.9L13.95 15.25Q13.6 14.9 13.5 14.4L13.35 8.45L14.85 8.45L14.95 13.8L15.4 14.55L16.4 14.85Q17.1 14.85 17.4 14.55L17.8 13.9L17.85 8.45L19.4 8.45" />
<path style="fill:none;stroke-width:1;stroke-linecap:round;stroke-linejoin:round;stroke-miterlimit:3;stroke:#26A3DB;stroke-opacity:1" d="M17.85,8.45L17.8 13.9L17.4 14.55Q17.1 14.85 16.4 14.85L15.4 14.55L14.95 13.8L14.85 8.45L13.35 8.45L13.5 14.4Q13.6 14.9 13.95 15.25L14.8 15.9L16.45 16.1L17.9 15.9L18.8 15.3L19.25 14.35L19.4 8.45L17.85 8.45z" />
<path style="fill:#26A3DB;fill-opacity:1" d="M19.2,8.45L19.05 14.35L18.6 15.3L17.7 15.9L16.25 16.1L14.6 15.9L13.75 15.25L13.3 14.4L13.15 8.45L14.65 8.45L14.75 13.8Q14.85 14.25 15.2 14.55L16.2 14.85L17.2 14.55L17.6 13.9L17.65 8.45L19.2 8.45" />
</g>
</svg>
