<svg xmlns="http://www.w3.org/2000/svg" width="15" height="15" viewBox="0 0 15 15">
	<g>
		<path d="M11.05,1.8Q11.35 1.5 11.75 1.5Q12.2 1.5 12.45 1.8L13.2 2.5L13.45 3.25L13.2 3.95L12.3 4.8L12.8 6L14.05 6Q14.45 6 14.75 6.3L15.05 7L15.05 8.05L14.75 8.75Q14.45 9.05 14.05 9.05L12.8 9.05L12.35 10.2L13.2 11.05L13.45 11.75L13.2 12.45L12.45 13.2L11.75 13.45L11.05 13.2L10.2 12.35L9.05 12.8L9.05 14.05L8.75 14.75L8 15.05L7 15.05Q6.6 15.05 6.3 14.75Q6 14.45 6 14.05L6 12.8L4.8 12.3L3.95 13.2L3.25 13.45L2.5 13.2L1.8 12.45Q1.5 12.2 1.5 11.75Q1.5 11.35 1.8 11.05L2.7 10.15L2.25 9.05L1 9.05Q0.6 9.05 0.3 8.75Q0 8.45 0 8.05L0 7Q0 6.6 0.3 6.3Q0.6 6 1 6L2.25 6Q2.4 5.35 2.7 4.85L1.8 3.95Q1.5 3.65 1.5 3.25Q1.5 2.8 1.8 2.5L2.5 1.8Q2.8 1.5 3.25 1.5Q3.65 1.5 3.95 1.8L4.85 2.7Q5.35 2.4 6 2.25L6 1Q6 0.6 6.3 0.3Q6.6 0 7 0L8 0Q8.45 0 8.75 0.3L9.05 1L9.05 2.25L10.15 2.7L11.05 1.8M5.4,5.4Q4.5 6.25 4.5 7.5Q4.5 8.75 5.4 9.65Q6.25 10.55 7.5 10.55Q8.8 10.55 9.65 9.65Q10.55 8.8 10.55 7.5Q10.55 6.25 9.65 5.4Q8.75 4.5 7.5 4.5Q6.25 4.5 5.4 5.4" fill-opacity="1" fill="#767676"></path>
	</g>
</svg>
