<?xml version="1.0" encoding="utf-8"?>
<svg version="1.1" id="Layer_1"
xmlns="http://www.w3.org/2000/svg"
xmlns:xlink="http://www.w3.org/1999/xlink"
xmlns:author="http://www.sothink.com"
width="11px" height="12px"
xml:space="preserve">
<g id="349" transform="matrix(1, 0, 0, 1, -11.45, -8.45)">
<path style="fill:none;stroke-width:1.5;stroke-linecap:round;stroke-linejoin:round;stroke-miterlimit:3;stroke:#4D4D4D;stroke-opacity:1" d="M12.2,18.85L20.8 18.85" />
<path style="fill:#4D4D4D;fill-opacity:1" d="M19.4,8.45L19.25 14.35L18.8 15.3L17.9 15.9L16.45 16.1L14.8 15.9L13.95 15.25Q13.6 14.9 13.5 14.4L13.35 8.45L14.85 8.45L14.95 13.8L15.4 14.55L16.4 14.85Q17.1 14.85 17.4 14.55L17.8 13.9L17.85 8.45L19.4 8.45" />
<path style="fill:#4D4D4D;fill-opacity:1" d="M19.7,8.45L19.55 14.35L19.1 15.3L18.2 15.9L16.75 16.1L15.1 15.9L14.25 15.25L13.8 14.4L13.65 8.45L15.15 8.45L15.25 13.8L15.7 14.55L16.7 14.85Q17.4 14.85 17.7 14.55L18.1 13.9L18.15 8.45L19.7 8.45" />
</g>
</svg>
