<?xml version="1.0" encoding="utf-8"?>
<svg version="1.1" id="Layer_1"
xmlns="http://www.w3.org/2000/svg"
xmlns:xlink="http://www.w3.org/1999/xlink"
xmlns:author="http://www.sothink.com"
width="37px" height="31px"
xml:space="preserve">
<g id="66" transform="matrix(1, 0, 0, 1, 18.2, 14.95)">
<path style="fill:#FFFFFF;fill-opacity:1" d="M0.1,-14.95Q5.9 -14.95 10.3 -10.95L6.65 -5.35Q4.1 -8.45 0.1 -8.45Q-3.55 -8.45 -6.1 -5.8Q-8.65 -3.25 -8.65 0.45L-8.65 0.8L-5.6 0.8L-11.85 10.45L-18.2 0.8L-15.1 0.8L-15.1 0.45Q-15.1 -5.95 -10.65 -10.4Q-6.2 -14.95 0.1 -14.95" />
<path style="fill:#60C6F3;fill-opacity:1" d="M-9.9,12.1L-6.35 6.5Q-3.6 9.4 0.1 9.4Q3.55 9.4 6.15 6.9Q8.65 4.5 8.8 1L5.7 1L11.95 -8.65L18.2 1L15.25 1Q15.05 7.2 10.65 11.5Q6.2 15.9 0.1 15.9Q-5.65 15.9 -9.9 12.1" />
</g>
</svg>
