<?xml version="1.0" encoding="UTF-8"?>
<!DOCTYPE svg PUBLIC "-//W3C//DTD SVG 1.1//EN" "http://www.w3.org/Graphics/SVG/1.1/DTD/svg11.dtd">
<!-- Creator: CorelDRAW X6 -->
<svg xmlns="http://www.w3.org/2000/svg" xml:space="preserve" width="44mm" height="50mm" version="1.1" style="shape-rendering:geometricPrecision; text-rendering:geometricPrecision; image-rendering:optimizeQuality; fill-rule:evenodd; clip-rule:evenodd"
viewBox="0 0 4400 5000"
 xmlns:xlink="http://www.w3.org/1999/xlink">
 <defs>
  <style type="text/css">
   <![CDATA[
    .fil0 {fill:#00AFEF}
   ]]>
  </style>
 </defs>
 <g id="Layer_x0020_1">
  <metadata id="CorelCorpID_0Corel-Layer"/>
  <path class="fil0" d="M123 4443c-2,2 -19,56 -46,-17l-67 -198c-13,181 -29,318 78,421 72,69 205,145 334,170l289 -495c15,15 -4,-13 25,33l120 275c42,100 99,214 125,315l840 50 278 -596 332 588 714 -48c26,-5 28,-6 50,-13 4,-1 13,0 16,-6 3,-7 11,-4 20,-5l206 -578 331 500c231,-35 599,-146 658,-317 0,-70 12,-609 -15,-619 -142,84 -104,69 -161,265 -33,112 -68,229 -95,337l-341 -428 -719 65 -316 598 -280 -574 -739 1c-84,162 -315,477 -354,574 -54,-57 -104,-232 -131,-308 -37,-101 -83,-203 -112,-297l-767 -99c-56,49 -244,343 -273,409z"/>
  <path class="fil0" d="M4380 3847c4,-3 10,-8 12,-10 2,-2 9,-8 11,-10l22 -19c0,-82 19,-598 -17,-622 -36,116 -119,392 -166,475l-370 -430 -675 91 -305 550 -298 -516 -731 2 -355 512c-58,-52 -215,-468 -250,-548l-762 -102 -297 390 -186 -448c-16,179 -6,386 -7,568 -1,263 63,272 109,481 59,-45 120,-138 139,-205 -117,-62 -237,-46 -232,-172 166,54 233,121 497,139l293 -475 275 546 810 45c99,-56 210,-417 296,-519 55,51 266,418 319,512 164,8 679,-6 819,-43l206 -525c65,59 119,153 180,231 67,87 114,158 175,235 157,-13 373,-64 489,-134z"/>
  <path class="fil0" d="M22 2880c66,186 698,226 933,251 525,57 3337,135 3465,-251 -148,-255 -1489,-289 -1871,-291l-2 307c-262,49 -368,88 -642,-5l-11 -303c-380,2 -1728,38 -1872,291z"/>
  <path class="fil0" d="M2225 681c19,-272 338,-430 181,-679 -147,-21 -229,129 -262,261 -43,171 8,304 81,417z"/>
  <path class="fil0" d="M2000 2826c132,42 322,49 450,-5l11 -207c-247,9 -272,-43 -453,-103 -32,70 -15,225 -8,314z"/>
  <path class="fil0" d="M1985 1044c67,120 277,188 454,165 32,-67 20,-112 20,-190 -281,10 -279,-58 -473,-115l-2 139z"/>
  <path class="fil0" d="M1985 2110c67,120 277,188 454,165 32,-67 20,-112 20,-190 -282,10 -278,-58 -473,-115l-2 139z"/>
  <path class="fil0" d="M1985 1834c88,131 281,179 475,163l0 -163c-72,-41 -168,-24 -259,-46 -85,-21 -145,-62 -211,-88l-4 134z"/>
  <path class="fil0" d="M1998 1600c88,74 272,164 437,131l11 -181c-69,7 -77,16 -130,-14 -118,-5 -208,-56 -297,-97 -25,27 -11,-7 -23,41 -2,7 -3,30 -3,37 -1,20 3,62 4,84z"/>
  <path class="fil0" d="M2459 2530l0 -168c-281,10 -279,-58 -473,-115 -4,168 19,179 149,236 115,50 191,60 324,46z"/>
  <path class="fil0" d="M1995 1324c112,78 256,154 446,131l11 -157c-74,6 -104,16 -156,-22 -114,-1 -196,-55 -287,-90 -28,38 -16,74 -14,137z"/>
  <path class="fil0" d="M2440 933c32,-67 20,-107 20,-185l-474 0c33,141 304,204 454,185z"/>
  <path class="fil0" d="M1614 4176l-15 -35 -318 -4 131 362c70,-106 155,-217 202,-324z"/>
  <polygon class="fil0" points="1934,5000 2294,4989 2087,4642 "/>
  <path class="fil0" d="M1711 3373c-3,-3 -8,-6 -10,-8l-23 -14c-14,-8 -19,8 -26,-12 -2,-6 -9,-4 -14,-6l-257 -5c16,68 34,103 61,166 11,26 19,53 34,84 10,23 9,22 21,40 18,26 11,17 31,35 45,-94 129,-177 185,-280z"/>
  <path class="fil0" d="M2624 4194l153 300c65,-100 120,-236 178,-342l-160 -5 -144 26c-97,29 22,-55 -28,21z"/>
  <path class="fil0" d="M2889 3653c50,-100 131,-220 168,-323l-339 16c10,59 70,147 109,224 2,4 20,38 21,39 36,52 17,24 41,44z"/>
  <path class="fil0" d="M532 4856l321 60c-33,-106 -98,-279 -164,-356l-156 296z"/>
  <path class="fil0" d="M2041 4082l339 9c-36,-87 -129,-253 -187,-300l-152 291z"/>
  <path class="fil0" d="M633 3999l315 36 -142 -322c-43,40 -164,218 -173,286z"/>
  <path class="fil0" d="M3994 3205c32,47 67,81 100,124 37,49 70,86 112,122l106 -335 -318 88z"/>
  <path class="fil0" d="M3612 4875c25,-26 10,-16 25,-43 -49,-85 -108,-170 -170,-252l-118 331 264 -36z"/>
  <path class="fil0" d="M3453 3990c-3,65 -5,36 76,34 43,-1 77,-2 120,-7l91 -24c3,-1 9,-4 13,-7 -52,-82 -137,-177 -178,-254 -56,63 -81,179 -122,258z"/>
  <path class="fil0" d="M136 3119l-16 18 96 263c57,-39 129,-145 160,-203 -46,-33 -182,-67 -239,-77z"/>
  <path class="fil0" d="M4165 4037l-8 -29 -218 42c43,63 109,151 146,213 47,-54 68,-156 80,-227z"/>
  <path class="fil0" d="M4408 3187c35,24 17,540 17,622l-22 19c-2,2 -9,8 -11,10 -2,2 -7,7 -12,10 44,14 39,-43 30,55 27,11 14,549 15,619 2,-4 7,-15 7,-13 1,3 5,-10 6,-14l6 -133c-2,-274 16,-1091 -8,-1237l-29 61z"/>
  <path class="fil0" d="M2441 1455c40,-19 29,2 34,-75 2,-38 -6,-58 -14,-91l-165 -13c52,38 82,27 156,22l-11 157z"/>
  <path class="fil0" d="M2435 1730c47,-21 27,3 34,-73 2,-25 -4,-86 -7,-113l-146 -9c52,30 61,21 130,14l-11 181z"/>
  <path class="fil0" d="M1998 1600c-1,-22 -5,-64 -4,-84 0,-7 2,-31 3,-37 11,-48 -2,-14 23,-41 -25,-25 38,-21 -44,-21 0,29 -3,76 -1,102 5,81 -4,36 24,81z"/>
  <path class="fil0" d="M2624 4194c50,-76 -70,9 28,-21l144 -26 -185 -2c-16,97 -5,10 13,48z"/>
  <path class="fil0" d="M2000 2826c-7,-90 -25,-245 8,-314l-8 314z"/>
  <path class="fil0" d="M1711 3373l27 -32 -100 -8c4,2 12,0 14,6 7,21 12,5 26,12l23 14c2,1 7,5 10,8z"/>
  <path class="fil0" d="M3529 4024c-81,2 -79,31 -76,-34 -27,36 -32,-53 -19,59l95 -25z"/>
  <path class="fil0" d="M123 4443l-46 -17c28,73 44,19 46,17z"/>
  <path class="fil0" d="M3612 4875l43 -19c3,-30 10,-23 -18,-23 -14,27 1,17 -25,43z"/>
  <path class="fil0" d="M1995 1324c-2,-63 -14,-99 14,-137l-34 93c8,36 7,22 21,44z"/>
  <polygon class="fil0" points="1614,4176 1643,4147 1599,4141 "/>
  <polygon class="fil0" points="4165,4037 4193,3989 4157,4009 "/>
  <polygon class="fil0" points="120,3137 136,3119 96,3090 "/>
 </g>
</svg>
