<?xml version="1.0" encoding="UTF-8"?>
<!DOCTYPE svg PUBLIC "-//W3C//DTD SVG 1.1//EN" "http://www.w3.org/Graphics/SVG/1.1/DTD/svg11.dtd">
<!-- Creator: CorelDRAW X6 -->
<svg xmlns="http://www.w3.org/2000/svg" xml:space="preserve" width="100mm" height="100mm" version="1.1" style="shape-rendering:geometricPrecision; text-rendering:geometricPrecision; image-rendering:optimizeQuality; fill-rule:evenodd; clip-rule:evenodd"
viewBox="0 0 10000 10000"
 xmlns:xlink="http://www.w3.org/1999/xlink">
 <defs>
  <style type="text/css">
   <![CDATA[
    .fil2 {fill:#ED3237}
    .fil0 {fill:#F58634}
    .fil1 {fill:white}
   ]]>
  </style>
 </defs>
 <g id="Layer_x0020_1">
  <metadata id="CorelCorpID_0Corel-Layer"/>
  <path class="fil0" d="M4760 7216l-29 -27 46 -21c279,-20 137,-50 259,-209 168,165 -47,159 325,198 -123,210 -181,24 -101,376 -247,-37 -21,-181 -394,21 21,-163 69,-241 -105,-337zm-465 -337l-181 191 69 288c-51,-18 -225,-115 -261,-120 -67,-9 -182,92 -249,121l-37 32 19 -59c24,-333 119,-177 -191,-450 79,-18 250,-26 299,-74 25,-24 44,-86 56,-117l45 -94c25,-36 7,-13 31,-37l118 250 271 27 45 11 -36 30zm622 -187l28 54 -39 -26c-141,-52 -74,-41 -203,19l11 -139 -93 -67c53,-16 92,-14 123,-42l51 -83c1,-2 5,-7 8,-11 81,129 15,94 192,118l-80 70 3 108zm-351 -1073c-39,36 -85,86 -120,136l46 199c-193,-62 -155,-138 -341,-1l-53 28 27 -75c48,-279 69,-89 -112,-268l-32 -27 40 -13c276,-15 140,-56 266,-208l83 180 185 10 47 13c-12,24 -30,23 -35,27zm389 -399l22 31 -43 -20c-124,-54 -60,-40 -174,-3l-43 30 26 -71c29,-102 37,-96 -62,-140l-53 -22 66 -4 80 -9 59 -104c2,-8 7,-8 11,-12 37,124 34,112 172,120 -68,101 -91,18 -63,205zm-562 -582l4 23 -25 -11c-157,-68 -255,-180 -366,135l-338 961c-115,338 -173,353 51,374 -76,130 -96,1 -61,222 -169,-63 -173,-73 -235,109 -112,331 -324,718 -180,922 307,436 2149,503 2596,20 182,-197 -10,-752 -268,-800 -56,-10 -223,76 -276,103 -3,-98 84,-226 53,-306 -34,-85 -138,-123 -185,-207l305 -16c25,-70 71,-98 58,-167l-804 -2298c-29,-65 -62,-77 -117,-115 -53,-37 -81,-69 -133,-101l-55 120c-14,40 -27,78 -40,115 -218,631 -169,496 135,548l-167 142 48 227z"/>
  <path class="fil0" d="M4692 3113c87,-46 622,-48 713,-272l-74 -66c-96,71 -186,131 -341,162 -138,28 -286,16 -407,77 -107,54 -262,152 -111,279 304,256 561,398 984,490 134,29 271,50 408,78 380,77 111,119 353,124 14,-371 -761,-149 -1414,-596 -31,-21 -43,-28 -79,-57 -55,-44 -42,-9 -58,-73l485 42c130,6 328,-41 462,-24 144,18 213,109 314,152l61 -106c-115,-53 -228,-190 -430,-174 -239,19 -643,60 -866,-36z"/>
  <path class="fil1" d="M3800 7170c-36,24 46,25 -46,18l24 -32c7,-213 17,-75 -91,-215 62,-24 103,-11 141,-48 25,-24 31,-70 66,-110 10,17 18,37 32,61l34 46c33,26 57,18 118,36l-74 87 32 157c-139,-36 -99,-80 -236,1zm-144 162l18 27c67,-29 182,-130 249,-121 35,5 210,102 261,120l-69 -288 181 -191 -9 -41 -271 -27 -118 -250c-25,24 -6,1 -31,37l-45 94c-12,31 -32,93 -56,117 -49,48 -220,56 -299,74 310,273 215,117 191,450z"/>
  <path class="fil0" d="M3778 7156l22 14c137,-80 97,-37 236,-1l-32 -157 74 -87c-60,-19 -84,-11 -118,-36l-34 -46c-14,-24 -22,-44 -32,-61 -35,40 -41,86 -66,110 -38,36 -79,24 -141,48 108,140 98,2 91,215z"/>
  <path class="fil0" d="M5469 6375l-35 136c221,-65 70,-61 265,24 -13,-114 -67,-277 -121,-363l-204 90 94 112z"/>
 </g>
</svg>
