<?xml version="1.0" encoding="UTF-8"?>
<!DOCTYPE svg PUBLIC "-//W3C//DTD SVG 1.1//EN" "http://www.w3.org/Graphics/SVG/1.1/DTD/svg11.dtd">
<!-- Creator: CorelDRAW X6 -->
<svg xmlns="http://www.w3.org/2000/svg" xml:space="preserve" width="100mm" height="100mm" version="1.1" style="shape-rendering:geometricPrecision; text-rendering:geometricPrecision; image-rendering:optimizeQuality; fill-rule:evenodd; clip-rule:evenodd"
viewBox="0 0 10000 10000"
 xmlns:xlink="http://www.w3.org/1999/xlink">
 <defs>
  <style type="text/css">
   <![CDATA[
    .fil0 {fill:#F7ADAF}
    .fil1 {fill:#FEFEFE}
   ]]>
  </style>
 </defs>
 <g id="Layer_x0020_1">
  <metadata id="CorelCorpID_0Corel-Layer"/>
  <path class="fil0" d="M5020 3230c20,105 -77,172 -128,260 -53,91 -90,181 -104,300 -15,130 -3,260 10,382 20,179 -87,236 -165,124 -89,-128 -57,-561 5,-711 52,-127 214,-429 382,-355zm53 2859c21,36 52,21 111,20 7,0 56,-1 60,-1 84,11 36,4 60,25 -183,308 166,337 229,538 -34,124 -168,170 -225,259 -95,149 38,267 87,343l75 -55c-56,-88 -179,-153 -54,-276 70,-70 202,-139 201,-270 -2,-221 -461,-303 -189,-552l263 -2c-32,-66 -12,-33 -66,-82l-206 -196c-52,-14 -5,-36 11,-47l227 -84c226,-78 387,-245 515,-436 376,-560 370,-1431 -7,-2006 -401,-613 -1107,-660 -1579,32 -521,763 -251,2163 548,2415 100,31 165,43 209,126l-269 248z"/>
  <path class="fil0" d="M7381 3899c-14,-109 122,-92 214,13 57,65 116,153 160,248 82,176 109,523 37,719 -38,104 -182,118 -186,-29 -6,-212 82,-434 -65,-710 -27,-51 -159,-231 -160,-241zm-484 2398c53,22 30,26 11,47 -75,80 -229,181 -276,274l251 1c-188,415 296,382 212,602 -28,72 -184,144 -228,241 -64,141 52,279 143,316l29 -46c-46,-101 -194,-173 -22,-314 454,-373 -58,-387 -88,-613 -34,-249 240,-178 343,-194 -84,-92 -190,-208 -286,-266 85,-158 352,-63 664,-427 750,-876 302,-2584 -662,-2619 -223,-8 -420,83 -543,193 101,432 213,643 101,1206 -48,243 -163,527 -308,720 -56,74 -116,122 -159,188 75,223 312,470 543,580 153,73 72,1 276,112z"/>
  <path class="fil0" d="M3329 3838c52,-23 108,-15 102,55 -3,39 -48,81 -74,117 -366,502 -7,930 -229,947 -242,18 -206,-941 201,-1118zm539 2506c-52,-14 -5,-36 11,-47 72,-31 18,-28 118,-57 58,-17 101,-23 151,-44 318,-134 415,-349 564,-573 -389,-415 -580,-936 -516,-1570 25,-252 97,-381 142,-590 -184,-72 -257,-182 -547,-164 -844,51 -1333,1395 -801,2387 315,588 708,482 802,657 -96,59 -202,174 -286,266l246 8c-32,127 -102,204 17,325 77,78 176,112 213,232 -34,123 -168,170 -225,259 -95,149 38,267 87,343l75 -55c-55,-86 -179,-154 -55,-277 71,-70 203,-136 202,-270 -2,-231 -454,-282 -192,-554l270 -4c-46,-90 -203,-195 -276,-273z"/>
  <path class="fil1" d="M7755 4159c-44,-94 -103,-183 -160,-248 -93,-105 -228,-122 -214,-13 1,10 132,190 160,241 148,276 60,498 65,710 4,147 148,133 186,29 72,-197 44,-543 -37,-719z"/>
  <path class="fil1" d="M5020 3230c-168,-74 -330,228 -382,355 -62,150 -94,583 -5,711 78,112 185,55 165,-124 -13,-122 -26,-252 -10,-382 14,-119 51,-209 104,-300 51,-88 148,-155 128,-260z"/>
  <path class="fil1" d="M3329 3838c-407,177 -442,1136 -201,1118 221,-17 -137,-445 229,-947 26,-35 71,-78 74,-117 6,-70 -50,-77 -102,-55z"/>
  <path class="fil0" d="M5304 6133c-24,-21 24,-14 -60,-25 -3,0 -53,1 -60,1 -59,1 -90,15 -111,-20l-30 38 261 7z"/>
  <path class="fil0" d="M5419 5840l11 -47c-16,11 -63,33 -11,47z"/>
  <path class="fil0" d="M3868 6344l11 -47c-16,11 -63,33 -11,47z"/>
  <path class="fil0" d="M6908 6344c19,-21 43,-25 -11,-47l11 47z"/>
 </g>
</svg>
