<?xml version="1.0" encoding="UTF-8"?>
<!DOCTYPE svg PUBLIC "-//W3C//DTD SVG 1.1//EN" "http://www.w3.org/Graphics/SVG/1.1/DTD/svg11.dtd">
<!-- Creator: CorelDRAW X6 -->
<svg xmlns="http://www.w3.org/2000/svg" xml:space="preserve" width="100mm" height="100mm" version="1.1" style="shape-rendering:geometricPrecision; text-rendering:geometricPrecision; image-rendering:optimizeQuality; fill-rule:evenodd; clip-rule:evenodd"
viewBox="0 0 10000 10000"
 xmlns:xlink="http://www.w3.org/1999/xlink">
 <defs>
  <style type="text/css">
   <![CDATA[
    .fil1 {fill:#F58634}
    .fil0 {fill:#F7ADAF}
   ]]>
  </style>
 </defs>
 <g id="Layer_x0020_1">
  <metadata id="CorelCorpID_0Corel-Layer"/>
  <path class="fil0" d="M4226 7824l679 0 10 -2099c-2,-87 -4,-242 -4,-337 215,-26 180,-502 24,-642 -80,-47 -335,16 -579,-196 -62,-54 -63,-85 -123,-141l-5 3415z"/>
  <path class="fil1" d="M4139 3418c0,309 171,753 380,875 -64,-164 -195,-617 -2,-729 32,52 115,286 139,355 53,148 78,275 9,412 417,-98 409,-482 298,-797 -94,-267 -358,-621 -379,-880 -270,67 -446,424 -446,765z"/>
 </g>
</svg>
