<?xml version="1.0" encoding="UTF-8"?>
<!DOCTYPE svg PUBLIC "-//W3C//DTD SVG 1.1//EN" "http://www.w3.org/Graphics/SVG/1.1/DTD/svg11.dtd">
<!-- Creator: CorelDRAW X6 -->
<svg xmlns="http://www.w3.org/2000/svg" xml:space="preserve" width="100mm" height="100mm" version="1.1" style="shape-rendering:geometricPrecision; text-rendering:geometricPrecision; image-rendering:optimizeQuality; fill-rule:evenodd; clip-rule:evenodd"
viewBox="0 0 10000 10000"
 xmlns:xlink="http://www.w3.org/1999/xlink">
 <defs>
  <style type="text/css">
   <![CDATA[
    .fil0 {fill:#00AFEF}
   ]]>
  </style>
 </defs>
 <g id="Layer_x0020_1">
  <metadata id="CorelCorpID_0Corel-Layer"/>
  <g id="_488354016">
   <path class="fil0" d="M3183 3163c201,11 294,52 499,-23 165,-60 252,-137 346,-236 161,-168 338,-470 338,-800l-16 -87c-42,335 -236,658 -497,751 -398,142 -679,-181 -787,-438 -143,-339 -126,-732 34,-1051 71,-141 174,-262 306,-334 197,-109 311,-73 512,-14 -336,-338 -1141,-263 -1408,610 -162,529 17,1237 469,1517l205 106z"/>
   <path class="fil0" d="M3605 5352c22,17 16,5 45,37 -9,-92 -7,-167 -71,-219 -184,-152 -486,39 -360,361 112,288 513,337 684,60 208,-337 -74,-653 -208,-828 -290,-379 -195,-389 -84,-845l-196 0c-197,357 142,769 361,1056 210,275 172,602 -27,714 -296,167 -639,-154 -445,-406 85,-111 283,-66 301,70z"/>
   <path class="fil0" d="M3772 3231c159,-60 244,-123 439,-142 181,-18 423,2 392,208 -55,360 -629,10 -831,-66zm-159 43c366,23 362,124 609,244 608,298 812,-625 -12,-514 -183,25 -498,172 -596,270z"/>
   <path class="fil0" d="M3772 3231c202,77 776,426 831,66 32,-206 -211,-225 -392,-208 -195,19 -280,82 -439,142z"/>
   <path class="fil0" d="M3224 3260c-117,-61 -281,-110 -429,-116 -485,-17 -311,617 70,321 51,-39 93,-79 157,-115l203 -91z"/>
   <path class="fil0" d="M3021 3351c-64,36 -106,75 -157,115 -382,296 -555,-339 -70,-321 149,5 312,55 429,116l-203 91zm162 -189c-201,-12 -395,-125 -619,-17 -344,167 -245,542 129,495 241,-30 55,-203 734,-370l-244 -108z"/>
   <path class="fil0" d="M3554 3327c15,131 130,259 212,339 46,44 67,47 101,97 -570,139 -385,-216 -359,-446 13,-55 -25,-15 23,-46l-13 -38c-80,254 -257,379 -413,509 125,139 560,182 829,3 -131,-136 -152,-102 -297,-298 -25,-33 -52,-83 -83,-119z"/>
   <path class="fil0" d="M3554 3327l-46 -10c-27,230 -211,585 359,446 -34,-49 -55,-52 -101,-97 -82,-80 -196,-208 -212,-339z"/>
   <path class="fil0" d="M4350 2016l16 87c36,-79 16,-181 16,-267l-33 180z"/>
   <path class="fil0" d="M3651 5389c-29,-32 -23,-20 -45,-37l3 110c1,-4 8,-16 10,-12l32 -61z"/>
   <path class="fil0" d="M3508 3316l46 10c-5,-96 2,-36 -23,-57 -48,31 -10,-8 -23,46z"/>
  </g>
 </g>
</svg>
