<?xml version="1.0" encoding="UTF-8"?>
<!DOCTYPE svg PUBLIC "-//W3C//DTD SVG 1.1//EN" "http://www.w3.org/Graphics/SVG/1.1/DTD/svg11.dtd">
<!-- Creator: CorelDRAW X6 -->
<svg xmlns="http://www.w3.org/2000/svg" xml:space="preserve" width="100mm" height="100mm" version="1.1" style="shape-rendering:geometricPrecision; text-rendering:geometricPrecision; image-rendering:optimizeQuality; fill-rule:evenodd; clip-rule:evenodd"
viewBox="0 0 10000 10000"
 xmlns:xlink="http://www.w3.org/1999/xlink">
 <defs>
  <style type="text/css">
   <![CDATA[
    .fil0 {fill:#00AFEF}
   ]]>
  </style>
 </defs>
 <g id="Layer_x0020_1">
  <metadata id="CorelCorpID_0Corel-Layer"/>
  <path class="fil0" d="M5649 7078c-37,-20 -45,-22 -69,-39 121,1 37,-1 69,39zm-312 -1151c178,24 294,104 390,197 395,384 -194,410 -439,168 -170,-168 -25,-235 50,-365zm-113 542l-15 -43 44 38c56,96 208,163 361,168 258,7 228,-70 291,-242 66,-181 18,-243 -68,-377 -84,-131 -147,-152 -292,-235 38,-37 90,-65 134,-97 56,-41 91,-73 138,-114 221,-192 328,-365 280,-687 -27,-178 -145,-153 -246,-234 52,-71 199,-147 288,-328 67,-136 27,-417 -24,-540 -51,-122 -201,-211 -346,-273 -149,-64 -331,-110 -458,-181 51,-96 296,-289 401,-343 0,-34 8,-25 -29,-23 -307,13 -292,-38 -447,146 -83,99 -49,106 -30,245 19,138 -5,157 89,222 295,203 604,119 813,436 26,132 -311,431 -444,515 -65,41 -129,71 -203,125l26 223c225,34 393,-42 548,126 -31,447 -945,554 -964,1260 -7,267 77,400 155,602 -303,300 -186,582 -112,819 -166,9 -153,80 -199,207 -54,150 -53,172 23,308 69,124 273,364 448,380 53,-242 152,-214 -113,-365 -72,-41 -243,-54 -288,-340 229,-21 249,25 332,122 65,76 139,125 249,178 238,-332 -141,-293 -291,-523 -105,-161 -326,-611 29,-647 106,98 321,411 505,372 4,-3 9,-13 11,-10 4,10 130,-176 66,-287 -54,-93 -257,-198 -393,-228 -100,-23 -83,-6 -132,-81 -47,-72 -110,-196 -137,-292z"/>
  <path class="fil0" d="M5711 2981l17 -34c-92,-32 -10,-8 -46,12 37,-2 29,-12 29,23z"/>
  <polygon class="fil0" points="5224,6470 5253,6465 5209,6427 "/>
 </g>
</svg>
