<?xml version="1.0" encoding="UTF-8"?>
<!DOCTYPE svg PUBLIC "-//W3C//DTD SVG 1.1//EN" "http://www.w3.org/Graphics/SVG/1.1/DTD/svg11.dtd">
<!-- Creator: CorelDRAW X6 -->
<svg xmlns="http://www.w3.org/2000/svg" xml:space="preserve" width="100mm" height="100mm" version="1.1" style="shape-rendering:geometricPrecision; text-rendering:geometricPrecision; image-rendering:optimizeQuality; fill-rule:evenodd; clip-rule:evenodd"
viewBox="0 0 10000 10000"
 xmlns:xlink="http://www.w3.org/1999/xlink">
 <defs>
  <style type="text/css">
   <![CDATA[
    .fil0 {fill:#A8518A}
   ]]>
  </style>
 </defs>
 <g id="Layer_x0020_1">
  <metadata id="CorelCorpID_0Corel-Layer"/>
  <g id="_487185272">
   <path class="fil0" d="M5595 4599l22 33c-21,347 -417,574 -671,716l-269 139c-28,21 -19,15 -32,28 191,192 927,603 1007,1070 55,319 -181,550 -413,627 -195,66 -748,124 -846,203 54,149 268,282 445,351l-23 105c-171,-57 -296,-151 -402,-243 -123,-107 -123,-328 78,-389 419,-128 702,-35 1024,-314 315,-274 -207,-738 -323,-850 -116,-112 -409,-325 -559,-431 -113,-80 -71,-89 -59,-243 323,-174 952,-389 1020,-804z"/>
   <path class="fil0" d="M5639 4594c-46,-74 5,-101 -39,-194 -42,-544 -878,-1085 -942,-1433 -60,-327 153,-423 365,-585 149,-114 116,-134 357,-121 -230,249 -605,440 -682,580 165,537 993,805 942,1753z"/>
   <path class="fil0" d="M5639 4594l-22 39 -22 -33 5 -200c44,93 -7,120 39,194z"/>
  </g>
 </g>
</svg>
