<?xml version="1.0" encoding="UTF-8"?>
<!DOCTYPE svg PUBLIC "-//W3C//DTD SVG 1.1//EN" "http://www.w3.org/Graphics/SVG/1.1/DTD/svg11.dtd">
<!-- Creator: CorelDRAW X6 -->
<svg xmlns="http://www.w3.org/2000/svg" xml:space="preserve" width="100mm" height="100mm" version="1.1" style="shape-rendering:geometricPrecision; text-rendering:geometricPrecision; image-rendering:optimizeQuality; fill-rule:evenodd; clip-rule:evenodd"
viewBox="0 0 10000 10000"
 xmlns:xlink="http://www.w3.org/1999/xlink">
 <defs>
  <style type="text/css">
   <![CDATA[
    .fil0 {fill:#F58634}
   ]]>
  </style>
 </defs>
 <g id="Layer_x0020_1">
  <metadata id="CorelCorpID_0Corel-Layer"/>
  <g id="_211564528">
   <path class="fil0" d="M3934 3630c0,166 -11,171 116,267l300 302c298,402 355,530 484,1025 8,-432 -246,-929 -559,-1242 -53,-53 -95,-92 -143,-148 -91,-107 -105,-70 -148,-153 91,-63 364,-304 412,-399l-145 -1c-60,67 -91,105 -162,160 -47,37 -156,101 -156,189z"/>
   <path class="fil0" d="M4523 7731l4 -2c2,-490 -42,-748 -333,-1145 -64,-87 -180,-183 -223,-273 229,-89 424,-185 568,-325 106,-103 287,-397 272,-626 -68,576 -779,792 -823,831 -34,30 -59,131 -52,191 6,51 106,152 145,198 423,510 345,619 441,1151z"/>
   <path class="fil0" d="M4467 7964c-83,103 -41,106 -169,185 -177,109 -312,173 -565,59 -94,-42 -122,-90 -192,-152 -47,38 -24,16 -50,68 242,422 969,230 975,-160z"/>
   <path class="fil0" d="M4490 7897c32,-48 14,-6 25,-76 4,-24 8,-61 12,-93l-4 2c-43,16 -34,114 -33,166z"/>
   <path class="fil0" d="M4467 7964c55,10 28,-29 23,-67l-23 67z"/>
  </g>
 </g>
</svg>
