<?xml version="1.0" encoding="UTF-8"?>
<!DOCTYPE svg PUBLIC "-//W3C//DTD SVG 1.1//EN" "http://www.w3.org/Graphics/SVG/1.1/DTD/svg11.dtd">
<!-- Creator: CorelDRAW X6 -->
<svg xmlns="http://www.w3.org/2000/svg" xml:space="preserve" width="100mm" height="100mm" version="1.1" style="shape-rendering:geometricPrecision; text-rendering:geometricPrecision; image-rendering:optimizeQuality; fill-rule:evenodd; clip-rule:evenodd"
viewBox="0 0 10000 10000"
 xmlns:xlink="http://www.w3.org/1999/xlink">
 <defs>
  <style type="text/css">
   <![CDATA[
    .fil0 {fill:#F58634}
   ]]>
  </style>
 </defs>
 <g id="Layer_x0020_1">
  <metadata id="CorelCorpID_0Corel-Layer"/>
  <g id="_211569088">
   <path class="fil0" d="M4788 5981l-67 14 16 276c217,10 295,-20 496,61 110,45 276,150 307,255 -27,52 -92,131 -126,157 -109,80 -393,-187 -648,36l4 296c255,124 388,55 620,-42 104,45 136,107 215,148l-10 205 45 -90c78,-304 -54,-375 -66,-413 -15,-47 11,-115 17,-177 39,-435 -47,-408 -236,-586 242,-137 228,-148 226,-488 -1,-215 -215,-282 -390,-306l-56 -7c7,-61 -4,-14 26,-37 430,-285 611,-422 570,-897 -16,-190 -226,-307 -387,-373 -166,-68 -394,-113 -577,-161 28,-65 69,-106 110,-148 210,-219 651,-764 755,-1009 58,-137 16,-296 -10,-434 -32,-173 -70,-220 -218,-285 -153,-67 -604,-185 -789,-204l1 296c235,35 774,150 930,270 -8,178 -316,551 -399,649 -85,102 -151,182 -238,286 -265,319 -327,271 -249,686 36,193 98,182 273,231 272,76 589,137 703,319 -67,169 -305,335 -456,431 -153,96 -401,248 -568,306l43 309c246,28 693,-13 827,178 -87,117 -478,251 -693,249z"/>
   <path class="fil0" d="M4737 6271l-16 -276 67 -14 -76 1c-7,68 -21,239 24,289z"/>
   <path class="fil0" d="M5189 5326c-37,-40 -5,-3 -29,-44 -30,23 -19,-24 -26,37l56 7z"/>
  </g>
 </g>
</svg>
