<?xml version="1.0" encoding="UTF-8"?>
<!DOCTYPE svg PUBLIC "-//W3C//DTD SVG 1.1//EN" "http://www.w3.org/Graphics/SVG/1.1/DTD/svg11.dtd">
<!-- Creator: CorelDRAW X6 -->
<svg xmlns="http://www.w3.org/2000/svg" xml:space="preserve" width="100mm" height="100mm" version="1.1" style="shape-rendering:geometricPrecision; text-rendering:geometricPrecision; image-rendering:optimizeQuality; fill-rule:evenodd; clip-rule:evenodd"
viewBox="0 0 10000 10000"
 xmlns:xlink="http://www.w3.org/1999/xlink">
 <defs>
  <style type="text/css">
   <![CDATA[
    .fil0 {fill:#00AFEF}
    .fil1 {fill:#E6E7E8}
   ]]>
  </style>
 </defs>
 <g id="Layer_x0020_1">
  <metadata id="CorelCorpID_0Corel-Layer"/>
  <path class="fil0" d="M4893 6466c-14,-171 -6,-276 42,-431l145 -359c147,227 -77,588 -187,789zm-214 -2503c-132,-49 -106,-74 -286,-102 78,-32 165,-25 234,34l52 67zm1558 23c-56,-141 -60,-285 -161,-376 130,51 183,192 161,376zm-866 -1354c-92,-130 -32,-42 -112,-121 -39,-38 -31,-44 -81,-74l-106 -59c202,6 285,129 336,298l-38 -44zm-522 3664c-10,273 33,63 -14,453 -54,454 256,1013 410,1031 -12,-47 -186,-257 -266,-433 -82,-181 -122,-390 -88,-609 99,233 51,234 232,562 56,102 228,448 305,477 -38,-109 -127,-235 -183,-347 -238,-478 -311,-1129 125,-1523 365,-331 -171,-941 43,-1158l113 45 39 -73c400,71 661,-228 765,-491 300,-755 -550,-1315 -1032,-451 -161,289 -113,769 158,885 -14,15 -15,14 -36,31 -17,14 -18,12 -35,26 -153,131 -8,424 34,577 85,313 82,431 -108,609 -113,106 -234,321 -275,540 -60,324 28,448 57,717 -61,-136 -103,-232 -146,-386 -97,-348 125,-435 209,-773 66,-268 -48,-306 -49,-424 0,-38 95,-331 110,-426 90,-570 -180,-891 -239,-1330l114 -3 -28 -85c827,-139 678,-1613 -82,-1578 -731,33 -851,1465 -14,1578 -63,174 140,640 187,855 56,256 20,733 -95,935 -39,-22 -2,3 -49,-33l-133 -101c-457,-295 -138,-390 -134,-393 31,-33 3,3 -10,-75 260,-130 347,-493 211,-820 -86,-208 -361,-512 -676,-401 -544,192 -380,1279 351,1265 -101,382 188,393 372,585 80,84 10,132 -63,342 -43,125 -76,260 -81,402z"/>
  <path class="fil1" d="M5408 2676c-51,-169 -134,-291 -336,-298l106 59c50,30 41,36 81,74 80,79 20,-9 112,121l38 44z"/>
  <path class="fil1" d="M6236 3985c22,-184 -32,-326 -161,-376 102,91 105,235 161,376z"/>
  <path class="fil1" d="M4393 3861c180,28 154,52 286,102l-52 -67c-68,-60 -156,-67 -234,-34z"/>
 </g>
</svg>
