<?xml version="1.0" encoding="UTF-8"?>
<!DOCTYPE svg PUBLIC "-//W3C//DTD SVG 1.1//EN" "http://www.w3.org/Graphics/SVG/1.1/DTD/svg11.dtd">
<!-- Creator: CorelDRAW X6 -->
<svg xmlns="http://www.w3.org/2000/svg" xml:space="preserve" width="100mm" height="100mm" version="1.1" style="shape-rendering:geometricPrecision; text-rendering:geometricPrecision; image-rendering:optimizeQuality; fill-rule:evenodd; clip-rule:evenodd"
viewBox="0 0 10000 10000"
 xmlns:xlink="http://www.w3.org/1999/xlink">
 <defs>
  <style type="text/css">
   <![CDATA[
    .fil0 {fill:#00A859}
    .fil1 {fill:#FEFEFE}
   ]]>
  </style>
 </defs>
 <g id="Layer_x0020_1">
  <metadata id="CorelCorpID_0Corel-Layer"/>
  <path class="fil0" d="M4124 7601c-86,-316 397,-436 473,-130 81,322 -388,444 -473,130zm910 -19c-56,-321 428,-390 482,-96 64,347 -429,397 -482,96zm911 -19c-11,-133 93,-253 211,-268 146,-20 265,94 281,216 42,334 -466,355 -492,53zm-1206 -1091c327,-106 422,387 147,466 -323,93 -458,-366 -147,-466zm914 1c317,-110 420,367 160,460 -323,116 -476,-351 -160,-460zm-921 -877c317,-112 441,382 149,463 -338,93 -408,-371 -149,-463zm915 1c289,-113 463,354 161,458 -314,108 -458,-342 -161,-458zm-448 -777c325,-112 440,394 152,468 -325,83 -439,-370 -152,-468zm-1699 3281l3605 9c-53,-185 -1277,-3017 -1462,-3470 -65,-160 -161,-349 -210,-510l-327 6 -1606 3965z"/>
  <path class="fil0" d="M5178 3035c-646,132 -461,1071 177,961 627,-107 455,-1091 -177,-961z"/>
  <path class="fil1" d="M4124 7601c86,314 554,191 473,-130 -76,-306 -560,-186 -473,130z"/>
  <path class="fil1" d="M4738 6472c-311,101 -176,559 147,466 275,-79 180,-572 -147,-466z"/>
  <path class="fil1" d="M5034 7582c53,301 546,251 482,-96 -54,-294 -539,-225 -482,96z"/>
  <path class="fil1" d="M5945 7562c26,303 533,282 492,-53 -15,-122 -135,-235 -281,-216 -118,16 -222,135 -211,268z"/>
  <path class="fil1" d="M5198 4820c-286,98 -172,551 152,468 288,-74 173,-580 -152,-468z"/>
  <path class="fil1" d="M5652 6473c-316,110 -163,577 160,460 260,-94 158,-570 -160,-460z"/>
  <path class="fil1" d="M5646 5597c-297,116 -152,566 161,458 302,-104 128,-571 -161,-458z"/>
  <path class="fil1" d="M4731 5595c-259,92 -189,555 149,463 292,-80 168,-575 -149,-463z"/>
 </g>
</svg>
